<svg xmlns="http://www.w3.org/2000/svg" xmlns:xlink="http://www.w3.org/1999/xlink" width="325" zoomAndPan="magnify" viewBox="0 0 243.75 242.999999" height="324" preserveAspectRatio="xMidYMid meet" version="1.0"><defs><clipPath id="8edd39e7a3"><path d="M 0.0390625 0.125 L 242.789062 0.125 L 242.789062 242.875 L 0.0390625 242.875 Z M 0.0390625 0.125 " clip-rule="nonzero"/></clipPath><clipPath id="365a17593a"><path d="M 58.480469 0.125 L 184.351562 0.125 C 216.625 0.125 242.789062 26.289062 242.789062 58.566406 L 242.789062 184.433594 C 242.789062 216.710938 216.625 242.875 184.351562 242.875 L 58.480469 242.875 C 26.203125 242.875 0.0390625 216.710938 0.0390625 184.433594 L 0.0390625 58.566406 C 0.0390625 26.289062 26.203125 0.125 58.480469 0.125 Z M 58.480469 0.125 " clip-rule="nonzero"/></clipPath><clipPath id="540d01b32d"><path d="M 45 45 L 198 45 L 198 198 L 45 198 Z M 45 45 " clip-rule="nonzero"/></clipPath><clipPath id="52b73133a7"><path d="M 38.6875 97.214844 L 38.6875 145.785156 C 38.6875 178.0625 64.851562 204.226562 97.128906 204.226562 L 145.703125 204.226562 C 177.976562 204.226562 204.140625 178.0625 204.140625 145.785156 L 204.140625 97.214844 C 204.140625 64.9375 177.976562 38.773438 145.703125 38.773438 L 97.128906 38.773438 C 64.851562 38.773438 38.6875 64.9375 38.6875 97.214844 Z M 38.6875 97.214844 " clip-rule="nonzero"/></clipPath></defs><g clip-path="url(#8edd39e7a3)"><g clip-path="url(#365a17593a)"><path fill="#121212" d="M 0.0390625 0.125 L 242.789062 0.125 L 242.789062 242.875 L 0.0390625 242.875 Z M 0.0390625 0.125 " fill-opacity="1" fill-rule="nonzero"/></g></g><g clip-path="url(#540d01b32d)"><g clip-path="url(#52b73133a7)"><path fill="#ffffff" d="M 113.554688 45.472656 C 102.054688 46.382812 88.242188 51.347656 78.644531 57.882812 C 73.265625 61.523438 64.828125 69.710938 61.105469 74.757812 C 48.863281 91.46875 42.328125 116.203125 46.546875 130.351562 C 47.953125 135.148438 50.433594 137.628906 61.023438 144.992188 C 71.199219 152.105469 81.292969 160.710938 85.179688 165.589844 C 87 167.992188 91.632812 174.609375 95.4375 180.398438 C 99.242188 186.191406 103.628906 191.898438 105.199219 193.054688 C 115.953125 201.246094 142.261719 197.9375 162.527344 185.859375 C 169.144531 181.972656 180.3125 171.132812 184.945312 164.101562 C 189.578125 157.238281 193.632812 148.054688 195.949219 139.035156 C 198.265625 130.101562 198.265625 112.894531 195.949219 103.960938 C 192.144531 89.320312 186.269531 78.730469 176.09375 68.304688 C 159.46875 51.183594 138.125 43.40625 113.554688 45.472656 Z M 113.554688 45.472656 " fill-opacity="1" fill-rule="nonzero"/></g></g></svg>